<?xml version="1.0" encoding="utf-8"?><svg xmlns="http://www.w3.org/2000/svg" xmlns:xlink="http://www.w3.org/1999/xlink"><symbol viewBox="0 0 18 18" id="door" xmlns="http://www.w3.org/2000/svg"><path d="M16 16.5v-15h-4v-1H2v16H0v2h12v-15h2v15h4v-2h-2zm-6 0H4v-14h6v14zm-3-8h2v2H7v-2z"/></symbol><symbol viewBox="0 0 20 20" id="mail" xmlns="http://www.w3.org/2000/svg"><path d="M10 .5C4.48.5 0 4.98 0 10.5s4.48 10 10 10h5v-2h-5c-4.34 0-8-3.66-8-8s3.66-8 8-8 8 3.66 8 8v1.43c0 .79-.71 1.57-1.5 1.57s-1.5-.78-1.5-1.57V10.5c0-2.76-2.24-5-5-5s-5 2.24-5 5 2.24 5 5 5c1.38 0 2.64-.56 3.54-1.47.65.89 1.77 1.47 2.96 1.47 1.97 0 3.5-1.6 3.5-3.57V10.5c0-5.52-4.48-10-10-10zm0 13c-1.66 0-3-1.34-3-3s1.34-3 3-3 3 1.34 3 3-1.34 3-3 3z"/></symbol><symbol viewBox="0 0 18 18" id="phone" xmlns="http://www.w3.org/2000/svg"><path d="M3.54 2.5c.06.89.21 1.76.45 2.59l-1.2 1.2c-.41-1.2-.67-2.47-.76-3.79h1.51zm9.86 12.02c.85.24 1.72.39 2.6.45v1.49c-1.32-.09-2.59-.35-3.8-.75l1.2-1.19zM4.5.5H1c-.55 0-1 .45-1 1 0 9.39 7.61 17 17 17 .55 0 1-.45 1-1v-3.49c0-.55-.45-1-1-1-1.24 0-2.45-.2-3.57-.57a.84.84 0 00-.31-.05c-.26 0-.51.1-.71.29l-2.2 2.2a15.149 15.149 0 01-6.59-6.59l2.2-2.2c.28-.28.36-.67.25-1.02A11.36 11.36 0 015.5 1.5c0-.55-.45-1-1-1z"/></symbol><symbol viewBox="0 0 20.31 37.28" id="social_fb" xmlns="http://www.w3.org/2000/svg"><path d="M3.15 35V21.58H1.88a2 2 0 01-1.88-2V14.3a2.61 2.61 0 01.91-2c.48-.53 1.21-1.35 1.47-1.62a2.12 2.12 0 01.75-.43 9.55 9.55 0 011.06-4.49 21.67 21.67 0 013.16-3.81 7.64 7.64 0 015-1.95H18a1.93 1.93 0 012.22 2.22v4.71a2.25 2.25 0 01-.63 1.84l-1.22 1.31a2 2 0 011.95 2.36c-.16 1.39-.48 4.42-.53 5a2.7 2.7 0 01-.46 1.4c-.27.34-1.44 1.62-1.91 2.14a2.05 2.05 0 01-1.59.6h-.49V33a3.39 3.39 0 01-.37 1.45c-.31.39-1.58 1.83-2.06 2.34a2.29 2.29 0 01-1.69.51H5.29A2 2 0 013.15 35z"/><path d="M18.36 12h-5V8.79a1.3 1.3 0 011.38-1.51h3.51V1.9h-4.8c-5.36 0-6.58 4-6.58 6.58v3.59H3.78v5.54h3.1V33.3h6.5V17.58h4.4z"/></symbol><symbol viewBox="0 0 36.41 36.37" id="social_insta" xmlns="http://www.w3.org/2000/svg"><path d="M29.37 0H9.09a6.93 6.93 0 00-4.93 2.26C2.78 3.62 2.62 3.77 1.6 4.88A7.14 7.14 0 000 9.08v20.75a6.6 6.6 0 006.54 6.54h20.75a6.66 6.66 0 004.59-1.94c1-1.09 1.89-1.86 2.91-2.91a7.18 7.18 0 001.61-4.25V6.51C36.41 2.88 33.43 0 29.37 0z"/><path d="M28.86 1.62H10.12a5.91 5.91 0 00-5.9 5.9v18.74a5.91 5.91 0 005.9 5.9h18.75a5.91 5.91 0 005.9-5.9V7.52a5.91 5.91 0 00-5.91-5.9zm1.69 3.51h.68v5.18h-5.16V5.13zm-15.4 8.63a5.37 5.37 0 11-1 3.14 5.37 5.37 0 011-3.14zm16.64 12.51a2.93 2.93 0 01-2.93 2.93H10.12a2.93 2.93 0 01-2.92-2.93V13.76h4.57a8.35 8.35 0 1015.47 0h4.56z"/></symbol><symbol viewBox="0 0 37.5 37.44" id="social_pin" xmlns="http://www.w3.org/2000/svg"><path d="M7.24 5L4.7 7.59c-6.71 7-6.12 18.52 1.06 25.13 5 5 14.76 7 23.24 1a44.71 44.71 0 003.51-3.43A17.87 17.87 0 007.23 5z"/><path d="M19.87 1.63a16 16 0 00-6.43 30.67 14.07 14.07 0 01.28-3.67l2.06-8.72a6.14 6.14 0 01-.51-2.53c0-2.37 1.37-4.14 3.09-4.14a2.14 2.14 0 012.16 2.4c0 1.46-.94 3.65-1.41 5.68a2.48 2.48 0 002.53 3.08c3 0 5.08-3.9 5.08-8.51 0-3.51-2.36-6.14-6.66-6.14A7.58 7.58 0 0012.18 17v.39a4.62 4.62 0 001.05 3.14.77.77 0 01.23.89c-.08.29-.25 1-.32 1.3a.55.55 0 01-.63.46l-.17-.05c-2.24-.91-3.25-3.36-3.25-6.12 0-4.55 3.83-10 11.44-10 6.11 0 10.13 4.42 10.13 9.17 0 6.28-3.49 11-8.63 11a4.56 4.56 0 01-3.9-2s-.93 3.69-1.12 4.4A13.38 13.38 0 0115.38 33a16 16 0 104.55-31.36z"/></symbol><symbol viewBox="0 0 37.77 31.38" id="social_twitter" xmlns="http://www.w3.org/2000/svg"><path d="M.45 25.71c.8-.67 2.11-1.89 2.7-2.27a1.93 1.93 0 011.4-.32h1.06a7.45 7.45 0 01-1.87-3c-.26-.84-.07-1 0-1.26a8.2 8.2 0 01-2.48-6A1.74 1.74 0 012 11.5a8.55 8.55 0 01-.69-3.57 12.38 12.38 0 01.89-3.22 3.72 3.72 0 011-1.3c.37-.29 1.65-1.36 2.06-1.73a1.67 1.67 0 012.49.17c4.06 4.69 8.37 5.54 8.37 5.54a12.62 12.62 0 011.75-2.72c.69-.59 3.16-2.7 3.7-3.14a8.21 8.21 0 0110 .37A11.31 11.31 0 0034.38.77a1.65 1.65 0 012.19 2.4c1.66.34 1.25 1.92.84 2.65a29.1 29.1 0 01-2.83 3.08 20.55 20.55 0 01-6.91 15.44c-.65.56-3.33 2.77-4.43 3.6a20.3 20.3 0 01-12 3.42 19.86 19.86 0 01-10.32-3 1.67 1.67 0 01-.47-2.65z"/><path d="M36.19 4.75a13.07 13.07 0 01-3.78 1 6.58 6.58 0 002.89-3.6 13.15 13.15 0 01-4.17 1.59 6.58 6.58 0 00-11.19 6A18.65 18.65 0 016.4 2.87a6.58 6.58 0 002 8.77 6.55 6.55 0 01-3-.82v.08a6.57 6.57 0 005.27 6.44 6.6 6.6 0 01-1.67.24 6.5 6.5 0 01-1.23-.12A6.58 6.58 0 0013.9 22a13.25 13.25 0 01-9.75 2.72 18.59 18.59 0 0010.07 3c12.08 0 18.69-10 18.69-18.69v-.89a13.31 13.31 0 003.28-3.39z"/></symbol><symbol viewBox="0 0 24 16" id="userplus" xmlns="http://www.w3.org/2000/svg"><path opacity=".3" d="M8 11.5c-2.7 0-5.8 1.29-6 2.01v.99h12v-1c-.2-.71-3.3-2-6-2zm0-5a2 2 0 100-4 2 2 0 000 4z"/><path d="M22 5.5v-2h-2v2h-2v2h2v2h2v-2h2v-2h-2zm-14 3c2.21 0 4-1.79 4-4s-1.79-4-4-4-4 1.79-4 4 1.79 4 4 4zm0-6c1.1 0 2 .9 2 2s-.9 2-2 2-2-.9-2-2 .9-2 2-2zm0 7c-2.67 0-8 1.34-8 4v3h16v-3c0-2.66-5.33-4-8-4zm6 5H2v-.99c.2-.72 3.3-2.01 6-2.01s5.8 1.29 6 2v1zM12.51.55A6.016 6.016 0 0114 4.5c0 1.51-.57 2.89-1.49 3.95C14.47 8.2 16 6.54 16 4.5S14.47.8 12.51.55zm4.02 9.78c.89.83 1.47 1.87 1.47 3.17v3h2v-3c0-1.45-1.59-2.51-3.47-3.17z"/></symbol></svg>